<svg width="171" height="80" fill="none" xmlns="http://www.w3.org/2000/svg"><mask id="a" style="mask-type:alpha" maskUnits="userSpaceOnUse" x="0" y="0" width="171" height="80"><path d="M31.487 33.227c0 1.621-1.158 2.431-2.315 2.431-1.273 0-2.43-.81-2.43-2.43V2.546C26.742 1.042 28.014 0 29.288 0c.81 0 1.62.463 2.199 1.273l50.362 69.928V45.614c0-1.157 1.157-2.315 2.432-2.315 1.158 0 2.315 1.158 2.315 2.315v31.954c0 1.39-1.505 2.431-2.778 2.431-.579 0-1.158-.231-1.622-.81L31.486 9.726v23.501zm94.929 10.767c1.389 0 2.894 1.158 2.894 2.547 0 .463-.23 1.042-.579 1.505l-15.977 19.218v10.303c0 1.622-.81 2.433-2.43 2.433-1.157 0-2.315-.81-2.315-2.433V2.547c0-1.273 1.158-2.432 2.315-2.432 1.62 0 2.43 1.159 2.43 2.431v57.54l11.925-15.282c.463-.578 1.042-.81 1.737-.81zm43.995 33.92c0 1.275-1.158 2.086-2.317 2.086-.695 0-1.388-.232-1.852-.81l-33.111-40.754c-.347-.462-.578-1.04-.578-1.504 0-.579.231-1.157.578-1.622L160.685.927C161.264.23 162.074 0 162.769 0c1.273 0 2.431.926 2.431 2.43 0 .58-.116 1.158-.579 1.737l-26.744 32.649 31.955 39.593c.347.347.579.926.579 1.505zm-138.924-32.3v31.954c0 1.62-1.158 2.431-2.315 2.431-1.273 0-2.43-.81-2.43-2.43V45.613c0-1.157 1.157-2.315 2.43-2.315 1.157 0 2.315 1.158 2.315 2.315zm55.11-43.067v30.68c0 1.621-1.158 2.431-2.316 2.431-1.275 0-2.432-.81-2.432-2.43V2.546c0-1.274 1.157-2.431 2.432-2.431 1.158 0 2.315 1.157 2.315 2.43zM0 77.567V2.548C0 1.274 1.158.115 2.315.115c1.274 0 2.433 1.16 2.433 2.432v75.02C4.748 79.19 3.588 80 2.315 80 1.158 80 0 79.189 0 77.568z" fill="#fff"/></mask><g mask="url(#a)"><path d="M31.487 33.227c0 1.621-1.158 2.431-2.315 2.431-1.273 0-2.43-.81-2.43-2.43V2.546C26.742 1.042 28.014 0 29.288 0c.81 0 1.62.463 2.199 1.273l50.362 69.928V45.614c0-1.157 1.157-2.315 2.432-2.315 1.158 0 2.315 1.158 2.315 2.315v31.954c0 1.39-1.505 2.431-2.778 2.431-.579 0-1.158-.231-1.622-.81L31.486 9.726v23.501zm94.929 10.767c1.389 0 2.894 1.158 2.894 2.547 0 .463-.23 1.042-.579 1.505l-15.977 19.218v10.303c0 1.622-.81 2.433-2.43 2.433-1.157 0-2.315-.81-2.315-2.433V2.547c0-1.273 1.158-2.432 2.315-2.432 1.62 0 2.43 1.159 2.43 2.431v57.54l11.925-15.282c.463-.578 1.042-.81 1.737-.81zm43.995 33.92c0 1.275-1.158 2.086-2.317 2.086-.695 0-1.388-.232-1.852-.81l-33.111-40.754c-.347-.462-.578-1.04-.578-1.504 0-.579.231-1.157.578-1.622L160.685.927C161.264.23 162.074 0 162.769 0c1.273 0 2.431.926 2.431 2.43 0 .58-.116 1.158-.579 1.737l-26.744 32.649 31.955 39.593c.347.347.579.926.579 1.505zm-138.924-32.3v31.954c0 1.62-1.158 2.431-2.315 2.431-1.273 0-2.43-.81-2.43-2.43V45.613c0-1.157 1.157-2.315 2.43-2.315 1.157 0 2.315 1.158 2.315 2.315zm55.11-43.067v30.68c0 1.621-1.158 2.431-2.316 2.431-1.275 0-2.432-.81-2.432-2.43V2.546c0-1.274 1.157-2.431 2.432-2.431 1.158 0 2.315 1.157 2.315 2.43zM0 77.567V2.548C0 1.274 1.158.115 2.315.115c1.274 0 2.433 1.16 2.433 2.432v75.02C4.748 79.19 3.588 80 2.315 80 1.158 80 0 79.189 0 77.568z" fill="#fff"/></g></svg>